<?xml version="1.0" encoding="UTF-8" standalone="no"?>
<!-- Created with Inkscape (http://www.inkscape.org/) -->

<svg
   width="117.24584mm"
   height="123.91584mm"
   viewBox="0 0 117.24584 123.91584"
   version="1.1"
   id="svg1"
   xml:space="preserve"
   inkscape:version="1.4.2 (ebf0e940, 2025-05-08)"
   sodipodi:docname="logo.svg"
   xmlns:inkscape="http://www.inkscape.org/namespaces/inkscape"
   xmlns:sodipodi="http://sodipodi.sourceforge.net/DTD/sodipodi-0.dtd"
   xmlns="http://www.w3.org/2000/svg"
   xmlns:svg="http://www.w3.org/2000/svg"><sodipodi:namedview
     id="namedview1"
     pagecolor="#ffffff"
     bordercolor="#000000"
     borderopacity="0.25"
     inkscape:showpageshadow="2"
     inkscape:pageopacity="0.0"
     inkscape:pagecheckerboard="0"
     inkscape:deskcolor="#d1d1d1"
     inkscape:document-units="mm"
     inkscape:zoom="0.62926495"
     inkscape:cx="348.0251"
     inkscape:cy="251.0866"
     inkscape:window-width="1512"
     inkscape:window-height="949"
     inkscape:window-x="0"
     inkscape:window-y="33"
     inkscape:window-maximized="0"
     inkscape:current-layer="layer1"><inkscape:page
       x="0"
       y="2.1885822e-25"
       width="117.24584"
       height="123.91584"
       id="page2"
       margin="0"
       bleed="0" /></sodipodi:namedview><defs
     id="defs1" /><g
     inkscape:label="Layer 1"
     inkscape:groupmode="layer"
     id="layer1"
     transform="translate(0,0.1345718)"><g
       id="g48"
       transform="translate(-7.1223404,-138.21452)"><path
         style="fill:#2061ab;fill-opacity:1;stroke:#000000;stroke-width:0.3;stroke-dasharray:none;stroke-opacity:1"
         d="m 73.418173,148.69164 -1.190625,-0.1587 -0.661458,-3.2204 c -0.363802,-1.77121 -0.737757,-3.29611 -0.831011,-3.38865 -0.09325,-0.0925 -0.246982,0.82086 -0.341617,2.02978 -0.09463,1.20891 -0.237161,2.64451 -0.316724,3.19021 l -0.144661,0.99219 H 69.001754 68.07143 l 0.179091,-2.18282 c 0.0792,-0.96535 0.283141,-2.17393 0.667737,-6.3583 0.169394,-1.6868 -0.188823,-1.4562 1.961084,-1.1338 l 1.158836,0.17378 0.609352,3.29536 c 0.335144,1.81245 0.691185,3.29536 0.791204,3.29536 0.100018,0 0.260483,-0.92273 0.356587,-2.05052 0.0961,-1.12779 0.242674,-2.55654 0.325711,-3.175 l 0.163158,-1.24631 c 1.524348,0.10359 0.235296,-0.0122 1.841463,0.12183 l -0.170154,1.78594 c -0.522585,5.48506 -0.916739,8.28039 -1.160252,8.22849 -0.102547,-0.0219 -0.72223,-0.11115 -1.377074,-0.19844 z"
         id="path48"
         sodipodi:nodetypes="scscsscccscscssssccscs" /><path
         id="path47"
         style="fill:#2061ab;fill-opacity:1;stroke:#000000;stroke-width:0.3;stroke-dasharray:none;stroke-opacity:1"
         d="m 60.651078,138.5502 -1.295011,0.12454 c -0.712374,0.0684 -1.352396,0.18145 -1.422136,0.25115 -0.169069,0.16907 -0.839231,5.07907 -1.073319,7.86412 l -0.187069,2.2257 0.470392,-0.0766 c 0.406004,-0.054 0.748965,-0.1204 1.096574,-0.17519 l 0.625665,-0.0986 v -1.16117 -1.16116 l 0.952914,-0.17881 c 1.122591,-0.2106 1.060777,-0.25412 1.522904,1.06557 l 0.363802,1.0387 0.895036,-0.0879 c 0.492413,-0.0482 0.973615,-0.16728 1.069185,-0.26458 0.152159,-0.15489 -1.337242,-4.88516 -2.585371,-8.21087 z m -1.170988,2.34663 0.321428,1.08882 c 0.176804,0.5988 0.398249,1.39398 0.491959,1.76733 0.149123,0.59413 0.08022,0.58863 -0.496093,0.67903 -1.201874,0.18853 -1.042239,0.33976 -0.489376,-2.49545 z"
         sodipodi:nodetypes="cccsccsccccccccccccsscc" /><path
         style="fill:#2061ab;fill-opacity:1;stroke:#000000;stroke-width:0.3;stroke-dasharray:none;stroke-opacity:1"
         d="m 43.973387,142.3118 c 0.04351,-0.17183 1.725637,-0.54522 1.771417,-0.49136 0.04578,0.0539 0.626718,1.70526 1.290971,3.66979 1.278644,3.7816 1.236148,3.73239 2.732184,3.1636 0.544937,-0.20718 0.54223,-0.30904 0.361442,-0.92894 -0.354463,-1.2154 -0.400225,-0.7118 0.798098,-1.19584 0.787943,-0.31828 0.810676,0.15432 1.04111,1.0117 0.146665,0.54571 0.349683,1.25875 0.431461,1.59998 l 0.151861,0.63366 -2.681676,0.89847 c -1.387577,0.46489 -2.720379,1.04742 -2.863289,0.90688 -0.14291,-0.14053 -3.077092,-9.09612 -3.033579,-9.26794 z"
         id="path43"
         sodipodi:nodetypes="zcsssssscszz" /><path
         style="fill:#2061ab;fill-opacity:1;stroke:#000000;stroke-width:0.3;stroke-dasharray:none;stroke-opacity:1"
         d="m 36.288312,156.42634 c -0.09701,-0.097 -0.176389,-0.49959 -0.176389,-0.89463 0,-0.62522 0.146983,-0.75525 1.134902,-1.00401 1.326263,-0.33396 2.454734,-1.38564 2.199765,-2.05008 -0.149784,-0.39033 -0.443142,-0.42524 -2.283437,-0.27177 -1.597339,0.13321 -2.290802,0.0834 -2.847528,-0.20448 -1.431819,-0.74042 -1.934401,-2.8455 -1.014533,-4.24939 0.459362,-0.70108 2.798753,-1.98944 3.621723,-1.99458 0.227709,-10e-4 0.614662,0.41818 0.859896,0.93244 0.55167,1.15686 0.554449,1.10492 -0.07719,1.44297 -0.377734,0.20215 -0.664586,0.19156 -1.032379,-0.0381 -1.076174,-0.67209 -2.48498,1.06543 -1.515949,1.86965 0.251893,0.20906 1.031115,0.25028 2.467094,0.13053 2.446911,-0.20407 2.988163,-0.003 3.630826,1.35175 0.585928,1.23475 0.356611,2.23247 -0.765225,3.32935 -1.227844,1.20054 -3.685892,2.16606 -4.201572,1.65038 z"
         id="path42" /><path
         style="fill:#2061ab;fill-opacity:1;stroke:#000000;stroke-width:0.3;stroke-dasharray:none;stroke-opacity:1"
         d="m 92.600465,155.63672 c -1.013982,-0.65681 -2.017787,-1.27764 -2.220313,-1.39577 -0.28697,-0.16737 0.174846,-1.12741 2.092729,-4.35045 1.353526,-2.27463 2.559376,-4.13568 2.679665,-4.13568 0.120289,0 1.23045,0.60676 2.467024,1.34836 0,0 2.228844,1.18724 2.248316,1.34837 0.02426,0.20078 -0.877473,1.39008 -0.877473,1.39008 -0.128659,0.20382 -0.30665,-0.0293 -1.46528,-0.76066 -0.592732,-0.37418 -1.231294,-0.81721 -1.381846,-0.81721 -0.150551,0 -0.47841,0.51806 -0.760398,0.98718 l -0.456248,0.75902 c -0.137405,0.22858 1.253887,0.85032 1.253887,0.85032 0.7231,0.41748 1.314728,0.81294 1.314728,0.87881 0,0.0659 -0.190864,0.41106 -0.424142,0.76708 l -0.424142,0.64733 -1.166623,-0.68369 c -1.335361,-0.78257 -1.389877,-1.00759 -1.688334,-0.52861 l -1.053193,1.6902 1.452176,0.88011 c 1.656232,1.00378 1.921351,0.68882 1.083863,1.89279 -0.441889,0.63526 -0.120423,0.88676 -2.674396,-0.76758 z"
         id="path41"
         sodipodi:nodetypes="sssssssssssssscsscsss" /><path
         style="fill:#2061ab;fill-opacity:1;stroke:#000000;stroke-width:0.3;stroke-dasharray:none;stroke-opacity:1"
         d="m 28.156017,163.06285 c -0.272806,-0.32871 -0.279427,-0.5141 -0.03071,-0.8599 0.174389,-0.24246 0.387467,-0.58676 0.473507,-0.76511 0.08732,-0.18101 -0.751877,-1.32208 -1.899535,-2.58281 l -2.055971,-2.25854 -0.612918,0.5758 -0.612919,0.57581 -0.531939,-0.4814 c -0.292566,-0.26477 -0.531939,-0.61727 -0.531939,-0.78334 0,-0.42984 3.584604,-3.58479 4.072988,-3.58479 0.223471,0 0.538199,0.24643 0.699395,0.54763 0.242124,0.45241 0.192118,0.6352 -0.28759,1.05125 l -0.580675,0.50362 1.330377,1.52843 c 0.731708,0.84064 1.686644,1.86654 2.12208,2.27977 l 0.791703,0.75133 0.705499,-0.46226 0.705498,-0.46226 0.578175,0.59135 0.578175,0.59136 -1.984375,1.8262 c -1.091406,1.00441 -2.118624,1.82861 -2.282707,1.83155 -0.164083,0.003 -0.454835,-0.18321 -0.646116,-0.41369 z"
         id="path40" /><path
         id="path39"
         style="fill:#2061ab;fill-opacity:1;stroke:#000000;stroke-width:0.3;stroke-dasharray:none;stroke-opacity:1"
         d="m 105.38582,152.89661 c -0.19241,-9.5e-4 -0.70703,0.40288 -1.1436,0.8971 -0.43656,0.49422 -1.85637,2.04921 -3.15485,3.45561 l -2.36058,2.55695 0.727605,0.71365 0.728125,0.71313 1.42213,-1.5751 c 1.75529,-1.94425 2.00854,-1.62993 1.06919,1.32809 l -0.66405,2.09238 0.71934,0.58911 c 0.39568,0.32406 0.80547,0.59341 0.91054,0.59841 0.10508,0.005 0.3815,-0.67479 0.61443,-1.51153 0.83902,-3.01409 0.72284,-2.83721 1.91565,-2.92541 1.80862,-0.13375 3.11222,-2.12702 2.44481,-3.73827 -0.36292,-0.87618 -2.70317,-3.19112 -3.22874,-3.19412 z m 0.34778,2.33422 0.51108,0.46251 c 0.57647,0.5217 0.66897,1.4389 0.19327,1.91461 -0.46112,0.46112 -1.3881,0.3893 -1.87017,-0.14521 l -0.41755,-0.46302 0.79168,-0.8847 z" /><path
         style="fill:#2061ab;fill-opacity:1;stroke:#000000;stroke-width:0.3;stroke-dasharray:none;stroke-opacity:1"
         d="m 66.539006,165.05743 c -2.367466,-1.21802 -5.187817,-2.16291 -7.50404,-2.51404 -1.41003,-0.21376 -2.287813,-1.14773 -2.277128,-2.4229 0.02142,-2.55653 2.001977,-2.9789 7.003044,-1.49345 2.452512,0.72846 6.650251,2.73963 7.6478,3.66413 0.93423,0.86582 0.972456,2.682 0.07421,3.52586 -0.938868,0.88202 -2.099746,0.70366 -4.943886,-0.7596 z"
         id="path37" /><path
         style="fill:#2061ab;fill-opacity:1;stroke:#000000;stroke-width:0.3;stroke-dasharray:none;stroke-opacity:1"
         d="m 59.280646,170.32068 c -0.71788,-0.28348 -2.263834,-0.65098 -3.435453,-0.81667 -2.5855,-0.36564 -3.329103,-0.93454 -3.329103,-2.54698 0.0013,-2.16324 2.059142,-2.48437 3.76803,-2.31103 2.503523,0.20879 6.409816,1.54374 6.9395,2.37153 1.093679,1.70921 0.08629,3.90313 -1.765816,3.84564 -0.479557,-0.0149 -1.459279,-0.25901 -2.177158,-0.54249 z"
         id="path36"
         sodipodi:nodetypes="ssssscs" /><path
         style="fill:#2061ab;fill-opacity:1;stroke:#000000;stroke-width:0.3;stroke-dasharray:none;stroke-opacity:1"
         d="m 80.077745,171.23179 c -0.548575,-0.58297 0.04827,-2.45022 0.04827,-2.45022 0.921355,-3.57661 0.985155,-3.73665 1.576859,-3.95555 0.979438,-0.36234 1.769465,0.18994 1.769465,1.23696 0,1.36528 -1.041527,4.63143 -1.644801,5.15798 -0.609687,0.89146 -1.506572,0.2693 -1.749794,0.0108 z"
         id="path35"
         sodipodi:nodetypes="ssssss" /><path
         style="fill:#2061ab;fill-opacity:1;stroke:#000000;stroke-width:0.3;stroke-dasharray:none;stroke-opacity:1"
         d="m 83.191035,169.66944 c 1.304595,-4.46629 1.440637,-4.78079 2.144343,-4.95741 0.870698,-0.21853 1.503329,0.17975 1.603882,1.00974 0.04347,0.35884 -0.236318,1.71605 -0.621756,3.01603 -0.385438,1.29998 -0.765219,2.60172 -0.843958,2.89276 -0.368592,1.36242 -1.738694,1.65758 -2.276486,0.97136 -0.491599,-0.62727 -0.548302,-1.07608 -0.006,-2.93248 z"
         id="path34"
         sodipodi:nodetypes="cssssscc" /><path
         style="fill:#2061ab;fill-opacity:1;stroke:#000000;stroke-width:0.3;stroke-dasharray:none;stroke-opacity:1"
         d="m 86.609528,173.43967 c -0.995832,-0.91761 -0.365747,-2.04137 0.186877,-4.05812 0.496727,-1.81276 1.091812,-2.54747 1.984907,-2.41518 1.10973,0.16437 1.221834,0.80875 0.575601,3.30858 -0.326594,1.26337 -0.824624,2.61355 -1.20227,2.96629 -0.430993,0.40257 -1.163246,0.55031 -1.545115,0.19843 z"
         id="path33"
         sodipodi:nodetypes="assssa" /><path
         style="fill:#2061ab;fill-opacity:1;stroke:#000000;stroke-width:0.3;stroke-dasharray:none;stroke-opacity:1"
         d="m 83.207756,181.07876 c -4.226245,-1.41482 -4.803454,-1.96354 -5.180375,-4.92462 -0.09994,-0.7851 -0.267238,-1.54651 -0.371783,-1.69203 -0.104544,-0.14552 -0.760843,-1.33615 -1.458441,-2.64584 -0.697598,-1.30968 -1.429656,-2.6161 -1.626797,-2.90314 -0.554533,-0.80741 -0.235024,-1.66506 0.303021,-2.14827 0.311848,-0.28007 0.932438,-0.30681 1.256771,-0.0413 0.780559,0.63899 1.155608,1.40104 1.840413,2.63418 1.363012,2.4544 1.4993,2.60321 2.855941,3.11836 0.509323,0.1934 1.819011,0.76473 2.910417,1.26961 2.360825,1.09213 3.951105,1.3577 4.549105,0.7597 0.226374,-0.22637 1.020207,-1.9956 1.764072,-3.93161 1.930782,-5.02513 2.398807,-5.88377 3.261402,-5.9834 0.517571,-0.0598 0.929735,0.19682 1.135878,0.56627 0.431359,0.77308 -1.463815,5.50608 -1.463815,5.50608 -1.038762,2.67173 -2.309756,5.92925 -2.824432,7.23894 -0.514675,1.30969 -1.209991,2.66847 -1.545146,3.01952 -0.905304,0.94823 -2.873076,1.00557 -5.406231,0.15755 z"
         id="path32"
         sodipodi:nodetypes="sssssassscsscsssss" /><path
         style="fill:#0c833e;fill-opacity:1;stroke:#000000;stroke-width:0.3;stroke-dasharray:none;stroke-opacity:1"
         d="m 42.354684,182.12598 c -1.068126,-0.55455 -1.462035,-1.15782 -1.471846,-2.25416 -0.0088,-0.98572 0.702737,-1.85737 2.545971,-3.11877 1.830055,-1.25239 4.060198,-0.32787 4.060198,1.68318 0,1.32027 -0.290556,1.75347 -1.905663,2.84127 -1.793673,1.20806 -2.286578,1.33759 -3.22866,0.84848 z"
         id="path31" /><path
         style="fill:#2061ab;fill-opacity:1;stroke:#000000;stroke-width:0.3;stroke-dasharray:none;stroke-opacity:1"
         d="m 27.98984,184.64545 c -0.639764,-0.25765 -1.402917,-1.52988 -1.402917,-2.33878 0,-1.39714 6.134978,-7.76384 10.894494,-11.30599 4.317872,-3.21347 5.349108,-3.56707 6.812289,-2.33589 0.640829,0.53923 0.81226,0.89111 0.805636,1.65365 -0.01085,1.24959 -0.242185,1.52155 -2.701251,3.17574 -3.891663,2.61788 -7.007308,5.37609 -10.059493,8.90543 -2.152591,2.48911 -2.850144,2.84935 -4.348758,2.24584 z"
         id="path30" /><path
         style="fill:#2061ab;fill-opacity:1;stroke:#000000;stroke-width:0.3;stroke-dasharray:none;stroke-opacity:1"
         d="m 66.229714,194.56263 c -0.401518,-0.21805 -0.837327,-0.78092 -1.010193,-1.30471 l -0.304027,-0.92121 1.187471,-2.19043 c 1.525491,-2.81394 2.111953,-4.86078 2.105867,-7.3498 -0.0069,-2.84167 -0.682698,-5.1329 -2.258734,-7.65857 -0.403704,-0.64695 -0.734008,-1.44502 -0.734008,-1.77349 0,-2.03638 2.133088,-3.21773 3.81737,-2.11415 0.863748,0.56595 2.330313,3.24018 3.212383,5.85767 0.621648,1.84471 0.716323,2.55861 0.736843,5.55625 0.02611,3.81426 -0.343864,5.43292 -2.00446,8.76957 -1.570482,3.15559 -2.984125,4.08706 -4.748512,3.12887 z"
         id="path29" /><path
         style="fill:#2061ab;fill-opacity:1;stroke:#000000;stroke-width:0.3;stroke-dasharray:none;stroke-opacity:1"
         d="m 47.806683,198.39958 c -0.683646,-0.63692 -0.96692,-1.59491 -0.739518,-2.50094 0.378791,-1.50923 5.114105,-5.45683 9.273228,-7.73064 2.532283,-1.38441 3.399514,-2.63674 3.539322,-5.111 0.09059,-1.60324 0.01753,-1.98019 -0.582118,-3.00342 -1.440624,-2.45823 -3.086393,-3.23779 -6.252454,-2.96161 l -2.051376,0.17894 -0.754179,-0.64871 c -0.596893,-0.51343 -0.75418,-0.87089 -0.75418,-1.714 0,-0.6495 0.183541,-1.26809 0.470252,-1.58491 1.225334,-1.35397 6.044949,-1.49977 8.703543,-0.26329 4.309308,2.00422 6.863603,6.76846 6.079705,11.3398 -0.612845,3.57384 -2.443631,6.03965 -5.917162,7.96958 -2.734742,1.51945 -4.89035,3.09379 -6.936492,5.06604 -1.317744,1.27015 -1.706317,1.50065 -2.529797,1.50065 -0.611626,0 -1.186763,-0.19923 -1.548774,-0.53649 z"
         id="path28" /><path
         style="fill:#2061ab;fill-opacity:1;stroke:#000000;stroke-width:0.3;stroke-dasharray:none;stroke-opacity:1"
         d="m 78.84221,203.65041 c -0.881354,-1.04743 -0.782794,-1.71965 0.559875,-3.81858 2.133974,-3.33594 3.684382,-7.3459 4.876657,-12.61293 0.656463,-2.90001 1.029487,-3.36408 2.704079,-3.36408 1.43735,0 2.310466,0.92049 2.310009,2.43537 -0.0013,4.18087 -3.952078,14.39541 -6.707694,17.34223 -0.661078,0.70695 -1.002459,0.8599 -1.919304,0.8599 -0.92848,0 -1.233816,-0.14097 -1.823622,-0.84191 z"
         id="path27" /><path
         style="fill:#2061ab;fill-opacity:1;stroke:#000000;stroke-width:0.3;stroke-dasharray:none;stroke-opacity:1"
         d="m 83.90785,210.98724 c -1.219587,-1.13028 -0.986766,-1.98286 1.486277,-5.44273 3.079588,-4.30844 4.983075,-8.33894 6.284119,-13.30618 0.588825,-2.24807 1.319094,-7.53619 1.319094,-9.55201 0,-2.32208 1.427715,-3.47035 3.32779,-2.67645 1.277088,0.5336 1.536859,1.51456 1.354942,5.11656 -0.388885,7.70003 -2.978623,15.40536 -7.398074,22.01172 -0.827466,1.23693 -1.970018,2.75497 -2.539005,3.37344 -0.883494,0.96031 -1.187849,1.12448 -2.084786,1.12448 -0.748112,0 -1.251674,-0.18667 -1.750357,-0.64883 z"
         id="path26" /><path
         style="fill:#0c833e;fill-opacity:1;stroke:#000000;stroke-width:0.3;stroke-dasharray:none;stroke-opacity:1"
         d="m 24.185321,211.65642 c -0.492038,-0.49204 -0.772634,-1.0455 -0.771299,-1.52136 0.0035,-1.24343 1.227143,-6.67138 2.107129,-9.34691 1.810143,-5.5036 5.965837,-12.73223 9.358197,-16.27813 1.420578,-1.48488 1.76592,-1.71354 2.587945,-1.71354 1.381052,0 2.348797,0.97445 2.348797,2.36506 0,0.91019 -0.215469,1.32139 -1.46299,2.79196 -4.848121,5.71493 -8.187022,12.75691 -9.660766,20.37527 -0.451448,2.33371 -0.692534,3.02838 -1.216673,3.50573 -0.957972,0.87246 -2.313144,0.79911 -3.29034,-0.17808 z"
         id="path25" /><path
         style="fill:#2061ab;fill-opacity:1;stroke:#000000;stroke-width:0.3;stroke-dasharray:none;stroke-opacity:1"
         d="m 90.219215,217.15138 c -1.72444,-0.9432 -1.628569,-2.28163 0.3417,-4.77038 2.129594,-2.69 4.465798,-6.28555 5.813321,-8.94702 1.302874,-2.57328 3.015654,-7.71134 3.762004,-11.28539 0.59606,-2.85432 0.90338,-3.4375 2.00274,-3.80032 1.16147,-0.38332 2.43351,0.0359 2.91214,1.18902 0.35134,0.84644 0.25993,1.94951 0.0212,3.09487 -1.82342,8.74693 -4.92551,15.3862 -10.589553,22.66436 -1.621959,2.08418 -2.859721,2.62267 -4.263512,1.85486 z"
         id="path24"
         sodipodi:nodetypes="sssssssss" /><path
         style="fill:#2061ab;fill-opacity:1;stroke:#000000;stroke-width:0.3;stroke-dasharray:none;stroke-opacity:1"
         d="m 97.833086,220.9037 c -0.852604,-0.51985 -1.308254,-1.50728 -1.163219,-2.52076 0.07179,-0.50165 2.203316,-3.49884 2.799469,-3.89855 3.065444,-2.05533 3.911534,1.13393 3.846754,2.00535 -0.0674,0.90606 -2.18259,3.97243 -3.27389,4.5958 -0.789691,0.45109 -1.230568,0.4148 -2.209114,-0.18184 z"
         id="path23"
         sodipodi:nodetypes="ssssss" /><path
         id="path44"
         style="fill:#2061ab;fill-opacity:1;stroke:#000000;stroke-width:0.3;stroke-dasharray:none;stroke-opacity:1"
         d="m 82.615629,140.63638 c -0.292153,-0.10571 -0.260096,-0.14618 -0.488342,0.54622 -0.314417,0.95381 -0.320932,0.83696 -0.01809,0.93379 0.08996,0.0288 -1.889447,6.10814 -2.039152,6.09368 -0.375195,-0.15621 -0.380816,0.30059 -0.533818,0.73949 -0.234003,0.67126 -0.206236,0.82355 0.175184,0.96015 0.249389,0.0893 0.9895,0.37515 1.644344,0.63511 0.654844,0.25996 1.767974,0.4793 2.47375,0.4873 1.107426,0.0125 1.399363,-0.10333 2.129586,-0.84542 1.031529,-1.04829 2.447499,-5.0351 2.174545,-6.12263 -0.27012,-1.07625 -1.487042,-2.18104 -2.941423,-2.67063 -1.539189,-0.51815 -1.980378,-0.5947 -2.576587,-0.75706 z m 2.61121,2.70474 c 0,0 0.697767,0.26965 0.698149,0.31833 0.0096,1.2155 -1.549216,5.43495 -1.939774,5.60403 -0.519042,0.22472 -1.339908,-0.17354 -1.418678,-0.301 -0.123393,-0.19966 1.57613,-5.5287 1.859318,-5.83013 0.04202,-0.0513 0.359958,0.008 0.800985,0.20877 z"
         sodipodi:nodetypes="ssscssscssssscssscc" /><path
         style="fill:#0c8542;fill-opacity:1;stroke:#000000;stroke-width:0.3;stroke-dasharray:none;stroke-opacity:1"
         d="m 122.2338,221.49518 c -0.64801,-0.26722 -2.55191,-0.69174 -2.8767,-0.71518 -0.38242,-0.0276 -2.70424,0.43904 -4.11308,0.49906 0,0 -1.53182,0.30568 -1.71425,0.073 -0.0587,-0.0748 0.17717,-1.04763 0.26254,-1.38775 0.13745,-0.54767 0.3567,-0.63725 1.9171,-0.78332 0.96904,-0.0907 1.96889,-0.18833 2.22189,-0.21692 0.34203,-0.0387 0.0902,-0.42522 -0.98178,-1.5072 -0.79298,-0.80037 -1.44647,-1.59844 -1.45219,-1.77349 -0.0177,-0.54195 0.58827,-1.66666 0.89196,-1.65549 0.15854,0.006 1.23472,1.07739 2.3915,2.38125 1.15678,1.30385 1.51646,2.24542 1.62308,2.27656 0.72478,0.21168 3.81431,1.25054 3.81431,1.55585 0,0.46787 -0.56524,1.71687 -0.77008,1.70162 -0.0858,-0.006 -0.63222,-0.20799 -1.2143,-0.44802 z"
         id="path22"
         sodipodi:nodetypes="sssssscsscssscs" /><path
         style="fill:#0c8542;fill-opacity:1;stroke:#000000;stroke-width:0.3;stroke-dasharray:none;stroke-opacity:1"
         d="m 8.6723268,222.947 c -0.903931,-0.98858 -1.3999864,-2.22284 -1.3999864,-3.48338 0,-1.67107 1.0414458,-2.81013 3.3897336,-3.70746 3.163936,-1.20901 5.238638,-0.81814 6.272844,1.18179 0.674684,1.3047 0.509413,2.74167 -0.422514,3.6736 -0.991602,0.9916 -1.372852,1.01775 -1.951984,0.13388 l -0.445697,-0.68022 0.67985,-0.63006 c 0.373918,-0.34654 0.679851,-0.79589 0.679851,-0.99857 0,-0.56103 -0.88873,-1.24427 -1.61849,-1.24427 -0.920896,0 -3.299366,0.87747 -3.9331281,1.45102 -0.8427137,0.76265 -0.7107694,2.14011 0.2949911,3.07963 l 0.82879,0.77421 -0.472922,0.52257 c -0.6193387,0.68436 -1.2304422,0.66098 -1.9013382,-0.0727 z"
         id="path21" /><path
         style="fill:#2061ab;fill-opacity:1;stroke:#000000;stroke-width:0.3;stroke-dasharray:none;stroke-opacity:1"
         d="m 32.931448,225.1786 c -0.86437,-0.69992 -1.320576,-3.1772 -1.499936,-8.14493 -0.181391,-5.02395 0.213848,-8.03395 1.681529,-12.80592 2.790157,-9.07183 8.82686,-16.89154 16.889507,-21.87799 1.164167,-0.72 2.627067,-1.51013 3.250889,-1.75585 l 1.134223,-0.44675 0.767945,0.39712 c 1.492312,0.7717 2.022939,2.31557 1.199782,3.49079 -0.216719,0.30942 -1.264575,1.04035 -2.328568,1.6243 -8.747931,4.80115 -15.098815,13.49054 -17.107385,23.40664 -0.904343,4.46465 -0.308544,9.32515 -0.111285,13.8204 0.09243,2.10624 -1.836632,3.66549 -3.876701,2.29219 z"
         id="path20"
         sodipodi:nodetypes="ssssccsscsss" /><path
         style="fill:#0c833e;fill-opacity:1;stroke:#000000;stroke-width:0.3;stroke-dasharray:none;stroke-opacity:1"
         d="m 73.17389,229.20736 c -0.621581,-0.52303 -0.81405,-0.90248 -0.81405,-1.6049 0,-1.42446 0.385187,-1.85856 2.586522,-2.91497 1.124027,-0.53941 3.30214,-1.79876 4.840251,-2.79856 3.617242,-2.35125 4.376426,-3.56676 2.766037,-4.42861 -0.868935,-0.46504 -1.518837,-0.23275 -4.107394,1.46808 -4.950592,3.25283 -7.013763,3.9386 -9.593314,3.18871 -3.959879,-1.15117 -5.889483,-5.95906 -3.813395,-9.50164 0.839436,-1.43239 1.22114,-1.76122 3.617126,-3.11611 1.091406,-0.61718 2.936875,-1.82217 4.101042,-2.67776 2.478979,-1.82191 2.96585,-1.99025 4.083911,-1.41208 0.879533,0.45482 1.340047,1.30136 1.340047,2.46334 0,1.00595 -2.254777,3.00573 -5.738215,5.08927 -1.573409,0.9411 -2.948217,1.8314 -3.055129,1.97846 -0.645031,0.88722 0.180004,2.51698 1.273553,2.51576 0.67775,-7.6e-4 3.251354,-1.36468 5.535416,-2.93359 2.495168,-1.71392 3.501337,-2.09292 5.55625,-2.09292 2.025597,0 3.350376,0.48143 4.587248,1.66705 2.718973,2.6063 2.547412,6.69954 -0.397201,9.47674 -2.459556,2.31972 -9.479042,6.3187 -11.091333,6.3187 -0.542766,0 -1.165583,-0.25433 -1.677372,-0.68497 z"
         id="path19" /><path
         style="fill:#2061ab;fill-opacity:1;stroke:#000000;stroke-width:0.3;stroke-dasharray:none;stroke-opacity:1"
         d="m 66.00984,229.80451 c -2.195306,-0.78156 -2.782599,-1.09475 -4.19675,-2.23805 -2.838565,-2.29488 -4.595948,-4.99355 -5.456564,-8.37919 -1.55458,-6.11568 1.66019,-13.28696 7.29075,-16.2637 4.052649,-2.14253 7.052646,-4.75841 9.12453,-7.95623 1.858728,-2.86884 3.16437,-6.40503 3.443175,-9.32549 0.278379,-2.916 0.964738,-3.90368 2.712736,-3.90368 1.935864,0 2.548099,1.62757 1.999795,5.31627 -1.268115,8.53121 -6.397191,15.54419 -14.593108,19.95315 -3.158021,1.72279 -5.770995,5.34922 -5.975525,8.99305 0.347192,4.34727 3.486984,7.75693 7.519083,9.28957 1.589354,0.51737 3.070001,1.77296 2.698652,3.08877 -0.43314,1.53475 -1.762862,2.42376 -4.566774,1.42553 z"
         id="path18"
         sodipodi:nodetypes="ssssssssszsas" /><path
         style="fill:#0c8542;fill-opacity:1;stroke:#000000;stroke-width:0.3;stroke-dasharray:none;stroke-opacity:1"
         d="m 12.948167,231.98441 c -0.232748,-0.45008 -0.384634,-0.8524 -0.337524,-0.89403 0.04711,-0.0416 0.758355,-0.50286 1.580542,-1.02494 1.466333,-0.93112 2.170938,-1.81342 4.289638,-5.37146 l 0.757441,-1.27201 0.630307,0.78779 c 0.757899,0.94725 0.776303,1.18955 0.152582,2.00887 -0.264195,0.34705 -0.751877,1.08026 -1.083737,1.62937 l -0.603382,0.99838 2.191551,-0.0723 2.191551,-0.0723 0.41354,0.73424 c 0.572061,1.0157 0.281222,1.14318 -3.118365,1.36677 l -2.818096,0.18534 -1.630491,0.90734 c -0.89677,0.49904 -1.756915,0.90735 -1.911434,0.90735 -0.154519,0 -0.471375,-0.36825 -0.704123,-0.81834 z"
         id="path17" /><path
         style="fill:#0c8542;fill-opacity:1;stroke:#000000;stroke-width:0.3;stroke-dasharray:none;stroke-opacity:1"
         d="m 113.9166,232.01361 -3.29012,-2.12621 -0.77609,1.19308 c -0.42685,0.6562 -0.85129,1.18912 -0.94321,1.18428 -0.46432,-0.0245 -1.37785,-1.06938 -1.20023,-1.37287 0.10884,-0.18596 0.69123,-1.11202 1.29419,-2.05791 0.60295,-0.94588 1.44572,-2.28099 1.87281,-2.9669 0.42708,-0.68591 0.87,-1.25146 0.98426,-1.25677 0.11426,-0.005 0.50061,0.18223 0.85855,0.41676 l 0.65081,0.42642 -0.72626,1.32789 c -0.39944,0.73034 -0.6072,1.37293 -0.46168,1.42798 0.61701,0.23341 6.05412,3.95506 6.13084,4.1965 0.0462,0.14552 -0.18319,0.59519 -0.50984,0.99927 l -0.59391,0.73468 z"
         id="path16" /><path
         style="fill:#2061ab;fill-opacity:1;stroke:#000000;stroke-width:0.3;stroke-dasharray:none;stroke-opacity:1"
         d="m 80.913485,235.32528 c -0.984139,-0.42555 -1.409895,-1.10829 -1.409895,-2.26092 0,-1.06981 0.799508,-1.81943 3.941224,-3.69531 1.335012,-0.79712 3.686386,-2.43423 5.225276,-3.63802 2.163413,-1.69233 2.988048,-2.18872 3.636036,-2.18872 1.774846,0 2.868205,1.62064 2.1894,3.24524 -0.429187,1.0272 -3.675148,3.6902 -7.583603,6.22163 -3.885307,2.51644 -4.756853,2.85296 -5.998438,2.3161 z"
         id="path15" /><path
         style="fill:#0c833e;fill-opacity:1;stroke:#000000;stroke-width:0.3;stroke-dasharray:none;stroke-opacity:1"
         d="m 66.014238,238.48479 c -7.795934,-1.73764 -14.419926,-7.63601 -17.077847,-15.20706 -2.166157,-6.17027 -1.346133,-13.51373 2.163019,-19.37023 2.121936,-3.54135 6.718436,-7.70419 9.62589,-8.71773 2.487392,-0.86711 4.432929,2.29212 2.454772,3.98614 -0.440713,0.37741 -1.442822,1.07992 -2.22691,1.56113 -3.446983,2.1155 -6.05673,5.5214 -7.540352,9.84069 -0.717097,2.0877 -0.719663,8.48268 -0.0042,10.58333 1.019369,2.99314 2.330013,5.08374 4.658889,7.43139 3.6852,3.7149 7.542509,5.25453 13.18826,5.26402 1.512322,-0.0783 2.467368,-0.25996 3.505729,0.77839 1.026174,1.02618 0.67572,2.40585 0.002,3.25733 -0.829293,1.0481 -3.902604,0.91967 -3.902604,0.91967 -1.964511,0.0349 -3.770337,-0.0868 -4.846578,-0.32671 z"
         id="path14"
         sodipodi:nodetypes="csssscscscsaccc" /><path
         style="fill:#2061ab;fill-opacity:1;stroke:#000000;stroke-width:0.3;stroke-dasharray:none;stroke-opacity:1"
         d="m 52.51609,241.07984 c -1.086853,-0.40472 -5.101282,-4.29101 -6.885892,-6.6661 -6.618759,-8.80874 -7.967434,-21.97203 -3.228318,-31.50892 0,0 1.023835,-2.03411 2.004162,-2.2358 1.002259,-0.2062 2.239582,0.15674 2.784934,1.29132 0.395869,0.82359 0.380289,0.89704 -0.901816,4.25177 -1.35678,3.55012 -1.7829,5.81528 -1.791836,9.525 -0.0098,4.0743 0.441732,6.43481 1.926125,10.06906 1.481915,3.62818 3.52395,6.53672 6.619028,9.4277 1.441236,1.3462 2.688318,2.71813 2.771294,3.04873 0.08298,0.3306 -0.02399,1.01957 -0.237694,1.53105 -0.500265,1.1973 -1.800326,1.73525 -3.059987,1.26619 z"
         id="path13"
         sodipodi:nodetypes="sssassssssss" /><path
         id="path12"
         style="fill:#0c8542;fill-opacity:1;stroke:#000000;stroke-width:0.3;stroke-dasharray:none;stroke-opacity:1"
         d="m 25.87439,233.66842 c -0.09979,3e-5 -0.189875,0.0338 -0.284737,0.0935 -0.251737,0.15853 -0.498164,0.51366 -0.547254,0.7891 -0.138421,0.77661 -4.03879,4.60178 -4.69222,4.60178 -0.308282,0 -0.779663,0.24202 -1.047481,0.53796 l -0.486792,0.53795 1.55236,1.56889 c 0.853922,0.86292 1.917829,1.75412 2.364197,1.98024 1.740945,0.88194 3.735703,-0.33319 3.685563,-2.24534 l -0.02791,-1.05678 h 0.856279 c 1.111772,0 2.251025,-1.09608 2.251025,-2.16576 0,-1.08502 -0.544575,-1.99707 -2.101163,-3.51813 -0.838767,-0.81966 -1.222493,-1.12351 -1.521871,-1.12345 z m 0.922941,3.0484 c 0.10999,-0.001 0.200069,0.0419 0.283703,0.12557 0.470516,0.47052 0.35056,1.47071 -0.21239,1.77199 -0.60908,0.32596 -0.560613,0.32647 -1.141532,-0.0119 -0.665196,-0.38744 -0.572768,-0.85661 0.295589,-1.49862 0.353071,-0.26103 0.591312,-0.38523 0.77463,-0.38705 z m -2.907833,2.73316 c 0.224064,0.004 0.403556,0.16516 0.571541,0.47904 0.384167,0.71782 0.34124,1.2349 -0.14211,1.71825 -0.547569,0.54754 -0.979123,0.52469 -1.737362,-0.0925 l -0.624768,-0.50849 0.777214,-0.81442 c 0.505736,-0.53006 0.867402,-0.78655 1.155485,-0.78187 z" /><path
         style="fill:#0c8542;fill-opacity:1;stroke:#000000;stroke-width:0.3;stroke-dasharray:none;stroke-opacity:1"
         d="m 104.24129,241.79772 -3.43279,-3.44042 1.99276,-1.99276 1.99276,-1.99276 0.60954,0.64883 0.60955,0.64884 -1.1303,1.22623 -1.1303,1.22623 0.70457,0.70458 0.70458,0.70458 1.0685,-1.04336 c 0.87554,-0.85494 1.15086,-0.99148 1.52461,-0.75612 0.78111,0.4919 0.6837,1.16895 -0.31536,2.19208 l -0.95386,0.97684 0.7994,0.76587 0.7994,0.76588 1.13162,-1.1106 c 1.28821,-1.26428 1.50133,-1.3202 2.17874,-0.57167 l 0.48772,0.53892 -1.96144,1.97462 c -1.0788,1.08604 -2.02567,1.97462 -2.10418,1.97462 -0.0785,0 -1.68748,-1.54819 -3.57552,-3.44043 z"
         id="path9" /><path
         style="fill:#0c8542;fill-opacity:1;stroke:#000000;stroke-width:0.3;stroke-dasharray:none;stroke-opacity:1"
         d="m 30.950721,250.89259 c -1.163161,-0.81912 -2.152352,-1.5214 -2.198202,-1.56062 -0.20728,-0.17731 5.217609,-8.06257 5.546878,-8.06257 0.203539,0 3.730184,2.40458 4.306587,2.93637 0.257962,0.23799 -0.53081,1.29696 -0.966042,1.29696 -0.133128,0 -0.773403,-0.36558 -1.422834,-0.8124 l -1.180784,-0.8124 -0.511731,0.61397 c -0.737477,0.8848 -0.657266,1.18325 0.528997,1.96828 1.133843,0.75034 1.208682,0.91308 0.784441,1.70578 -0.356184,0.66554 -0.688674,0.64536 -1.685508,-0.10229 -1.362328,-1.02177 -1.406012,-1.02362 -1.986751,-0.084 -0.303471,0.49103 -0.551765,0.9623 -0.551765,1.04727 0,0.085 0.565547,0.5367 1.256771,1.00384 0.691224,0.46713 1.302664,0.88585 1.358756,0.93049 0.148633,0.11828 -0.740429,1.42059 -0.969808,1.42059 -0.106791,0 -1.145843,-0.67019 -2.309005,-1.48931 z"
         id="path8" /><path
         style="fill:#0c8542;fill-opacity:1;stroke:#000000;stroke-width:0.3;stroke-dasharray:none;stroke-opacity:1"
         d="m 97.381137,252.06894 -0.433606,-0.61308 0.701384,-0.60898 0.701383,-0.60899 -1.552,-2.28593 c -0.8536,-1.25726 -1.617676,-2.38078 -1.697947,-2.4967 -0.08027,-0.11592 -0.524838,-0.0678 -0.987926,0.10704 -0.743177,0.28052 -0.888062,0.25686 -1.234701,-0.20161 -0.215997,-0.28568 -0.396508,-0.59084 -0.401136,-0.67814 -0.01047,-0.19741 4.401203,-3.14857 4.706779,-3.14857 0.122359,0 0.39032,0.31363 0.595469,0.69696 l 0.372998,0.69695 -0.592872,0.39365 c -0.32608,0.21651 -0.592872,0.50276 -0.592872,0.63611 0,0.13336 0.718179,1.31055 1.595953,2.61599 l 1.595957,2.37352 0.75317,-0.38948 0.75318,-0.38948 0.42899,0.47404 c 0.23595,0.26072 0.429,0.60986 0.429,0.77587 0,0.27955 -3.506748,2.80311 -4.339002,3.12248 -0.2032,0.078 -0.563161,-0.13366 -0.802201,-0.47165 z"
         id="path7" /><path
         style="fill:#0c8542;fill-opacity:1;stroke:#000000;stroke-width:0.3;stroke-dasharray:none;stroke-opacity:1"
         d="m 86.247059,257.11406 c -0.771251,-0.37524 -1.687497,-1.8258 -2.409256,-3.81422 -0.724626,-1.99633 -0.778248,-2.7743 -0.260259,-3.77597 0.529937,-1.02479 1.193341,-1.54136 2.460781,-1.91615 1.358899,-0.40182 2.468289,-0.0346 3.261713,1.07965 0.669098,0.93967 0.665516,0.96105 -0.239325,1.42896 l -0.761627,0.39385 -0.470006,-0.51935 c -0.654324,-0.72302 -1.766382,-0.46713 -2.133277,0.14389 -0.584509,0.97342 0.149099,2.52233 0.149099,2.52233 0.878856,2.3816 1.279966,2.61705 2.428102,2.62695 0.713258,0.006 1.185357,-0.19827 1.813919,-0.78543 0.467342,-0.43657 0.926418,-0.79001 1.020169,-0.78544 0.09375,0.005 0.378113,0.29393 0.631916,0.64301 l 0.46146,0.6347 -0.656823,0.78059 c -0.361252,0.42933 -1.063153,0.97341 -1.559779,1.20907 -0.992419,0.47094 -2.903017,0.53922 -3.736807,0.13356 z"
         id="path6"
         sodipodi:nodetypes="sssssscssscscscsss" /><path
         id="path5"
         style="fill:#0c8542;fill-opacity:1;stroke:#000000;stroke-width:0.3;stroke-dasharray:none;stroke-opacity:1"
         d="m 43.080575,246.74825 c -0.07238,9.6e-4 -0.125586,0.0149 -0.15503,0.0434 -0.30031,0.29033 -3.638537,8.24603 -3.638537,8.67131 0,0.32902 0.990086,0.8878 1.57303,0.8878 0.118665,0 0.557571,-0.8342 0.975135,-1.85363 0.662033,-1.61628 0.801458,-1.79599 1.089855,-1.40457 0.197308,0.26779 0.33073,1.27342 0.33073,2.49287 v 2.04381 l 0.727604,0.26613 c 1.456067,0.5318 1.473813,0.50512 1.330668,-2.00763 l -0.132292,-2.3151 0.806669,-0.39688 c 1.936254,-0.95266 2.467371,-3.13698 1.090373,-4.48448 -0.777789,-0.76113 -3.298587,-1.95237 -3.998205,-1.94303 z m 1.364257,2.48718 c 0.17895,0.006 0.395196,0.093 0.680062,0.24547 0.515283,0.27577 0.648402,0.9148 0.3514,1.68878 -0.171697,0.44743 -1.321825,0.56066 -1.909444,0.1881 -0.287929,-0.18255 -0.278492,-0.39381 0.05271,-1.18649 0.279356,-0.66859 0.483642,-0.94807 0.825272,-0.93586 z" /><path
         id="path3"
         style="fill:#0c8542;fill-opacity:1;stroke:#000000;stroke-width:0.3;stroke-dasharray:none;stroke-opacity:1"
         d="m 75.667216,250.79451 c -1.601499,0 -2.955556,0.65148 -3.486092,1.67742 -0.457996,0.88566 -0.363615,3.86759 0.183451,5.78879 0.373371,1.31121 1.434428,2.52924 2.319755,2.66289 1.937498,0.2925 3.998075,-0.58371 4.559412,-1.9389 0.202896,-0.48984 0.273868,-1.33701 0.182418,-2.18075 -0.474432,-4.37699 -1.495872,-6.00945 -3.758944,-6.00945 z m -0.261483,1.9389 c 0.867598,-0.009 1.430432,1.16258 1.622123,3.43028 0.123541,1.46149 0.07763,2.13725 -0.164331,2.42879 -0.184365,0.22215 -0.663445,0.40411 -1.064534,0.40411 -0.801734,0 -1.096638,-0.49619 -1.574064,-2.64583 -0.449639,-2.02454 -0.355425,-2.84745 0.381889,-3.33055 0.289323,-0.18957 0.55599,-0.28428 0.798917,-0.2868 z" /><path
         style="fill:#0c8542;fill-opacity:1;stroke:#000000;stroke-width:0.3;stroke-dasharray:none;stroke-opacity:1"
         d="m 61.41265,261.5182 c -1.406074,-0.50119 -1.573272,-0.72266 -1.186471,-1.5716 0.273081,-0.59935 0.439,-0.68804 1.004854,-0.53714 1.824309,0.48648 2.333624,0.54839 2.872241,0.34915 1.147005,-0.42431 0.71495,-1.22185 -1.156149,-2.13416 -1.85645,-0.90517 -2.493535,-1.69728 -2.493535,-3.1003 0,-1.88028 1.221497,-2.936 3.397036,-2.936 0.732058,0 1.636422,0.11612 2.009698,0.25803 0.590507,0.22451 0.678682,0.41358 0.678682,1.45521 v 1.19718 h -0.81852 c -0.596004,0 -0.856139,-0.14386 -0.9569,-0.52917 -0.166657,-0.6373 -1.430349,-0.73282 -1.918197,-0.145 -0.600714,0.72381 -0.165637,1.30742 1.616847,2.16882 1.959024,0.94671 2.605937,1.66518 2.605937,2.89416 0,2.27102 -2.891463,3.61607 -5.655523,2.63082 z"
         id="path1" /></g></g></svg>
